<?xml version="1.0" encoding="UTF-8"?>
<svg id="Layer_1" data-name="Layer 1" xmlns="http://www.w3.org/2000/svg" viewBox="0 0 595.28 841.89">
  <defs>
    <style>
      .cls-1, .cls-2 {
        fill: #231f20;
      }

      .cls-2 {
        font-family: OverusedGrotesk-Medium, 'Overused Grotesk';
        font-size: 36px;
        font-variation-settings: 'wght' 500, 'slnt' 0;
        font-weight: 500;
      }
    </style>
  </defs>
  <path class="cls-1" d="M41.11,148.38c21.18-24.08,47.71-43.65,77.56-55.64,12.41-4.99,30.37-12.34,38.57,2.1,7.67,13.5.76,31.56-4.83,44.73-12.25,28.86-32.85,53.5-56.63,73.61-12.14,10.26-28.94,18.35-36.34,33.02s-5.58,33.75-.29,49.26c9.64,28.25,31.8,51.53,59.17,63.27,29.65,12.71,62.49,10.49,91.43-3.12,29.64-13.94,52.07-39.72,63.17-70.34,11.29-31.18,10.42-67.35-1.53-98.2-.7-1.81-1.43-3.6-2.13-5.41.94,2.43-.35-1.81-.7-1.81l-.03-.08c-.21-.69-.54-.17-1,1.57-.26-1.24,6.85-2.91,8.22-3.31,9.03-2.6,18.28-4.66,27.6-5.9,13.56-1.81,31.21-3.83,40.88,8.11,9.12,11.25,11.28,28.87,10.27,42.82s-7.33,27.46-18.33,36.21c-5.53,4.4-11.78,6.84-18.68,8.05l12.99,5.28c-1.74-2.5-.37.6-.17,1.39-.09-.37-.27,1.41-.5,1.21-.49-.43,2.46-3.19,2.88-3.54,2.61-2.16,6-3.33,9.24-4.43,8.82-3.01,18-5.02,27.3-5.7,19.3-1.41,38.44,1.64,56.51,8.49,16.24,6.16,31.47,15.76,44.62,27.06,7.18,6.18,13.9,12.89,20.13,20.02,5.86,6.7,11.85,13.81,15.71,21.9,1.59,3.33,2.94,7.28,2.4,11.04s-2.12,5.58-4.72,8.01c-5.36,5-13.91,7.73-21.47,10.07,2.95,7.01,5.91,14.01,8.86,21.02,46.82-27.42,59.64-85.11,53.6-135.48-6.2-51.75-22.14-110.06-67.16-141.41-22.33-15.55-49.81-19.35-76.43-18.63-6.22.17-12.42.55-18.63,1.01-7.12.53-14.9.39-21.46,3.55-15.33,7.39-12.47,25.92-1.09,35.45,10.1,8.46,23.93,13.79,36.7,16.51s31.68,5.85,42.11-4.29c9.92-9.65,11.45-25.92,9.59-38.88-1.76-12.24-7.07-23.89-13.88-34.13-15.46-23.27-39.36-46.11-67.53-51.97-30.16-6.27-59.86,6.26-90.04,2.47-6.17-.78-11.5,5.84-11.5,11.5,0,6.86,5.31,10.72,11.5,11.5,22.91,2.88,45.29-3.99,68.11-4.43,9.81-.19,19.52,1.04,28.5,5.23s17.17,10.59,24.39,17.65c13.2,12.92,27.7,30.49,28.21,49.9.11,4.14-.28,8.57-2,12.41-.14.31-.53,1.27-.59,1.43-.38,1.16-2.4,1.04.12.37-2.16.57-4.18.64-6.45.61-10.8-.13-21.89-2.5-31.67-7.16-4.17-1.99-7.92-4.32-11.54-7.02-1.76-1.31-.44-1.55-1.62,1.33,1.1-2.67-.98,2.61-1.15,2.1-.08-.23,2.48-.45,2.49-.45,11.08-1.33,22.49-1.78,33.64-1.8,21.37-.03,42.29,3.65,59.88,16.48,35.17,25.64,47.24,73.57,53.6,114.26,6.81,43.56.49,97.53-41.31,122.01-11.06,6.47-3.82,24.95,8.86,21.02,20.46-6.34,44.61-18.41,43.08-43.67-.76-12.63-7.29-23.63-14.81-33.43-7.03-9.16-14.58-17.87-22.95-25.84-34.46-32.82-81.56-53.76-129.77-48.33-13.46,1.52-27.95,4.31-39.99,10.83s-22.42,21.49-13.46,34.37c3.19,4.58,7.58,6.23,12.99,5.28,36.95-6.46,57.06-45.25,53.72-80.21-1.66-17.36-6.85-37.15-20.54-49.07-14.76-12.84-34.26-13.4-52.75-11.17-10.38,1.26-20.66,3.08-30.76,5.79-8.64,2.32-18.17,4.84-23.72,12.42-6.74,9.21-2.96,18.64.53,28.19,2.97,8.13,5.19,16.58,6.5,25.13,4.76,30.97-2.86,65.28-23.75,89.15s-49.49,36.44-79.62,34.43c-27.4-1.83-53.39-19.37-66.78-43.53-6.24-11.25-11.5-26.5-8.18-39.51,1.83-7.15,7.45-11.56,13.18-15.73,7.03-5.11,13.97-10.35,20.61-15.96,26.05-22.03,48.04-49.47,61.39-81.01,7.34-17.33,13.97-37.78,7.54-56.44-6.42-18.62-22.87-30.63-42.9-28.46-18.21,1.97-36.21,10.73-52.1,19.47-15.52,8.54-30.06,19.04-43.21,30.9-6.33,5.71-12.29,11.8-17.92,18.2-4.1,4.66-4.59,11.67,0,16.26,4.18,4.18,12.14,4.68,16.26,0h0Z"/>
  <path class="cls-1" d="M59.84,532.05c.06-20.87.12-41.74.18-62.61l-3.37,8.13c-1.54,1.39-1.97-.58-.41.75.02.02,1.14.7,1.66,1.39,2.61,3.47,2.94,9.04,3.54,13.27,1.65,11.59,2.75,23.27,3.65,34.95,1.93,25.15,2.56,50.37,2.96,75.58.8,50.4.92,100.88,8.19,150.87,3.74,25.72,8.04,53.94,22.86,75.94,3.66,5.44,13.19,8.58,18.06,2.33,13.21-16.96,14.46-38.1,15.62-58.83,1.25-22.3.97-44.65.88-66.97-.09-22.33-.18-44.66-.26-66.99-.08-19.99-1.05-40.21.53-60.17,1.33-16.82,5.53-33.49,19.03-44.37l-18.06-2.33c13.98,32.34,18.99,67.91,23,102.64,2.1,18.2,4.02,36.42,6.57,54.56,2.37,16.89,3.63,37.61,13.98,51.83,4.29,5.89,12.4,7.99,18.06,2.33,6.52-6.52,9.17-15.01,10.76-23.87,1.78-9.92,3.16-19.9,4.4-29.9,2.36-18.92,3.96-37.91,6.03-56.86,2.01-18.46,4.54-36.87,8.72-54.98.98-4.24,2.04-8.45,3.21-12.64.67-2.39,1.32-4.81,2.11-7.17.13-.38,1.76-3.24,1.63-3.54.04.1-.47.49-.56.47l-2,.22c-1.44.58-2.68.3-3.73-.85.51-.17,1.56,2.35,1.78,2.78,1.73,3.44,3.03,7.13,4.38,10.72,12.08,32.06,18.61,65.89,30.6,97.98,5.98,16.01,13.08,32.03,22.93,46.09,5.49,7.84,14.56,15.06,24.61,10.71,10.95-4.74,10.12-17.08,10.44-27.09.7-22.09.87-44.2.5-66.3-.31-18.5-2.41-39.01,7.08-55.75h-19.86c13.29,21.94,26.58,43.87,39.88,65.81,6.82,11.25,13.63,22.5,20.45,33.75,5.71,9.43,11.63,19.61,22.11,24.33,12.12,5.46,25.7,2.44,33.05-9.01,6.29-9.81,10.48-21.78,14.44-32.69,8.38-23.06,15.95-49.12,4.81-72.53-9.54-20.05-29.47-36.13-47.49-48.27-4.51-3.04-9.17-5.88-13.94-8.49-2.18-1.19-4.4-2.29-6.59-3.45-.7-.37-2.37-1.72-3.14-1.76.4.02-1.29-.6-.47.12,1.09.96-1.13,1.43.75.06,1.12-.82,2.33-1.93,3.74-2.75,3.66-2.11,8.31-3.21,12.53-4.11,36.11-7.71,73.01,15.57,90.58,47.23,10.98,19.79,15.84,42.62,16.3,65.13.26,12.75-3.58,28.59,9.18,36.73,5.05,3.22,11.45,4.36,17.17,5.82,6.99,1.79,14.01,3.42,21.07,4.93-2.81-3.7-5.63-7.39-8.44-11.09.08,16.43-3.82,33.97-16.38,45.47-9.42,8.62-26.5,11.95-36.23,4.36-6.73-5.25-16.48-3.91-19.22,5.07-3.33,10.9,1.35,21.31,10.21,27.8,5.01,3.67,12.83.84,15.73-4.13,3.41-5.83.9-12.05-4.13-15.73,1.46,1.07-.41-1.42.13-.32-.06.94-.08.69-.08-.77-.17.93-.07.68.3-.73-6.41,1.69-12.81,3.38-19.22,5.07,19.26,15.03,45.83,13.59,64.95-1.22s27.04-40.96,26.92-64.88c-.02-4.81-3.53-10.04-8.44-11.09-5.83-1.25-11.63-2.58-17.42-4.01-2.74-.68-5.47-1.38-8.2-2.1-1.43-.38-2.86-.75-4.29-1.16-.8-.23-2.18-.12-1.62-.32.02,0,1.41,1.76.65,1.55-.15-.04,0-3.4-.01-3.19.08-2.67.28-5.33.34-8,.12-5.38.01-10.76-.34-16.13-1.4-21.35-6.26-42.23-15.46-61.59-17.67-37.18-53.82-64.34-95.44-66.84-18.75-1.13-45.08,2.85-55.52,20.58-6.9,11.72-1.09,24.54,9.96,30.85,9.56,5.46,19.14,10.39,28.07,16.92,8.37,6.12,16.19,13.23,23.17,20.9,6.21,6.82,11.8,14.84,12.92,24.24,1.34,11.2-2.2,22.68-5.43,33.26-3.47,11.35-7.72,22.43-12.86,33.13-1.05,2.18-2.03,4.65-3.48,6.61,0,0,.39.09.44.05-.68.66-1.36.39-2.31.28-.44-.05-2.24-.73-3.47-1.67-1.82-1.38-3.24-3.29-4.52-5.15-7.74-11.2-14.31-23.39-21.36-35.04-14.83-24.47-29.65-48.93-44.48-73.4-4.41-7.27-15.54-7.63-19.86,0-9.03,15.95-10.63,34.2-10.48,52.19.16,19.36.59,38.71.31,58.07-.14,9.75-.39,19.5-.74,29.25-.03.95-.36,2.87-.15,3.9l-.04.68c-.43,4.18,2.78,2.74,9.64-4.3.07.14-1.24-1.11-1.45-1.36-2.71-3.37-4.86-7.47-7-11.22-8.12-14.23-14.01-29.47-19.03-45.03-10.43-32.33-17.02-66.27-31.28-97.27-4.05-8.81-12.81-16.18-23.09-13.66-9.11,2.23-13.92,10.49-16.68,18.8-5.94,17.92-9.16,36.91-11.74,55.57-2.96,21.44-4.85,42.99-7.13,64.5-1.08,10.16-2.24,20.3-3.78,30.4-.76,5.01-1.51,10.05-2.57,15.01-.76,3.57-1.46,7.14-4.1,9.78l18.06,2.33c-5.05-6.93-6.44-15.18-7.98-23.46s-2.86-16.72-4-25.12c-2.41-17.72-4.13-35.54-6.26-53.3-4.41-36.75-10.54-72.98-25.31-107.15-3.23-7.48-13.01-6.4-18.06-2.33-28.96,23.34-26.52,65.73-26.39,99.13.18,44.97,1.16,90.01.24,134.97-.25,12.41-.8,24.83-2.01,37.18-.85,8.65-2.12,18.96-7.64,26.05l18.06,2.33c-7.9-11.74-11.78-25.03-14.8-38.72-3.19-14.45-5.59-29.08-7.3-43.77-3.61-31-4.66-62.22-5.22-93.4s-.62-61.34-2.12-91.97c-.78-15.91-1.95-31.81-3.79-47.64-1.59-13.73-1.95-30.45-12.5-40.8-5.93-5.82-15.33-8.68-23.42-6.52-3.47.92-6.91,2.85-9.43,5.44-4.23,4.35-3.37,10.41-3.39,15.96-.05,18.26-.1,36.52-.15,54.78-.04,14.8,22.96,14.82,23,0h0Z"/>
  <text class="cls-2" transform="translate(103.52 423.96) rotate(33.24)"><tspan x="0" y="0">S</tspan></text>
  <text class="cls-2" transform="translate(122.52 436.32) rotate(28.06)"><tspan x="0" y="0">u</tspan></text>
  <text class="cls-2" transform="translate(141.11 446.21) rotate(21.6)"><tspan x="0" y="0">b</tspan></text>
  <text class="cls-2" transform="translate(162.95 455.19) rotate(10.78)"><tspan x="0" y="0">m</tspan></text>
  <text class="cls-2" transform="translate(195.74 460.2) rotate(.74)"><tspan x="0" y="0">i</tspan></text>
  <text class="cls-2" transform="translate(204.52 460.35) rotate(-4.75)"><tspan x="0" y="0">t</tspan></text>
  <text class="cls-2" transform="translate(217.39 459.1) rotate(-10.35)"><tspan x="0" y="0"> </tspan></text>
  <text class="cls-2" transform="translate(226.82 457.67) rotate(-18.91)"><tspan x="0" y="0">y</tspan></text>
  <text class="cls-2" transform="translate(246.56 450.66) rotate(-29.36)"><tspan x="0" y="0">o</tspan></text>
  <text class="cls-2" transform="translate(264.97 439.98) rotate(-33.62)"><tspan x="0" y="0">u</tspan></text>
  <text class="cls-2" transform="translate(280.88 429.35) rotate(-31.77)"><tspan x="0" y="0">r</tspan></text>
  <text class="cls-2" transform="translate(291.07 423.09) rotate(-28.81)"><tspan x="0" y="0"> </tspan></text>
  <text class="cls-2" transform="translate(296.35 419.28) rotate(-21.21)"><tspan x="0" y="0">w</tspan></text>
  <text class="cls-2" transform="translate(320.6 410.07) rotate(-10.33)"><tspan x="0" y="0">o</tspan></text>
  <text class="cls-2" transform="translate(339.75 406.79) rotate(-2.98)"><tspan x="0" y="0">r</tspan></text>
  <text class="cls-2" transform="translate(351.35 405.99) rotate(3.55)"><tspan x="0" y="0">k</tspan></text>
  <text class="cls-2" transform="translate(368.93 407.31) rotate(8.55)"><tspan x="0" y="0"> </tspan></text>
  <text class="cls-2" transform="translate(375.6 408.04) rotate(13.36)"><tspan x="0" y="0">h</tspan></text>
  <text class="cls-2" transform="translate(394.09 412.41) rotate(19.56)"><tspan x="0" y="0">e</tspan></text>
  <text class="cls-2" transform="translate(412.62 419.15) rotate(23.85)"><tspan x="0" y="0">r</tspan></text>
  <text class="cls-2" transform="translate(422.6 423.4) rotate(27.31)"><tspan x="0" y="0">e</tspan></text>
  <text class="cls-2" transform="translate(440.19 432.65) rotate(30.07)"><tspan x="0" y="0">!</tspan></text>
</svg>