<?xml version="1.0" encoding="UTF-8"?>
<svg id="Layer_1" data-name="Layer 1" xmlns="http://www.w3.org/2000/svg" viewBox="0 0 595.28 841.89">
  <defs>
    <style>
      .cls-1 {
        fill: #231f20;
      }
    </style>
  </defs>
  <path class="cls-1" d="M41.11,148.38c21.18-24.08,47.71-43.65,77.56-55.64,12.41-4.99,30.37-12.34,38.57,2.1,7.67,13.5.76,31.56-4.83,44.73-12.25,28.86-32.85,53.5-56.63,73.61-12.14,10.26-28.94,18.35-36.34,33.02s-5.58,33.75-.29,49.26c9.64,28.25,31.8,51.53,59.17,63.27,29.65,12.71,62.49,10.49,91.43-3.12,29.64-13.94,52.07-39.72,63.17-70.34,11.29-31.18,10.42-67.35-1.53-98.2-.7-1.81-1.43-3.6-2.13-5.41.94,2.43-.35-1.81-.7-1.81l-.03-.08c-.21-.69-.54-.17-1,1.57-.26-1.24,6.85-2.91,8.22-3.31,9.03-2.6,18.28-4.66,27.6-5.9,13.56-1.81,31.21-3.83,40.88,8.11,9.12,11.25,11.28,28.87,10.27,42.82s-7.33,27.46-18.33,36.21c-5.53,4.4-11.78,6.84-18.68,8.05l12.99,5.28c-1.74-2.5-.37.6-.17,1.39-.09-.37-.27,1.41-.5,1.21-.49-.43,2.46-3.19,2.88-3.54,2.61-2.16,6-3.33,9.24-4.43,8.82-3.01,18-5.02,27.3-5.7,19.3-1.41,38.44,1.64,56.51,8.49,16.24,6.16,31.47,15.76,44.62,27.06,7.18,6.18,13.9,12.89,20.13,20.02,5.86,6.7,11.85,13.81,15.71,21.9,1.59,3.33,2.94,7.28,2.4,11.04s-2.12,5.58-4.72,8.01c-5.36,5-13.91,7.73-21.47,10.07,2.95,7.01,5.91,14.01,8.86,21.02,46.82-27.42,59.64-85.11,53.6-135.48-6.2-51.75-22.14-110.06-67.16-141.41-22.33-15.55-49.81-19.35-76.43-18.63-6.22.17-12.42.55-18.63,1.01-7.12.53-14.9.39-21.46,3.55-15.33,7.39-12.47,25.92-1.09,35.45,10.1,8.46,23.93,13.79,36.7,16.51s31.68,5.85,42.11-4.29c9.92-9.65,11.45-25.92,9.59-38.88-1.76-12.24-7.07-23.89-13.88-34.13-15.46-23.27-39.36-46.11-67.53-51.97-30.16-6.27-59.86,6.26-90.04,2.47-6.17-.78-11.5,5.84-11.5,11.5,0,6.86,5.31,10.72,11.5,11.5,22.91,2.88,45.29-3.99,68.11-4.43,9.81-.19,19.52,1.04,28.5,5.23s17.17,10.59,24.39,17.65c13.2,12.92,27.7,30.49,28.21,49.9.11,4.14-.28,8.57-2,12.41-.14.31-.53,1.27-.59,1.43-.38,1.16-2.4,1.04.12.37-2.16.57-4.18.64-6.45.61-10.8-.13-21.89-2.5-31.67-7.16-4.17-1.99-7.92-4.32-11.54-7.02-1.76-1.31-.44-1.55-1.62,1.33,1.1-2.67-.98,2.61-1.15,2.1-.08-.23,2.48-.45,2.49-.45,11.08-1.33,22.49-1.78,33.64-1.8,21.37-.03,42.29,3.65,59.88,16.48,35.17,25.64,47.24,73.57,53.6,114.26,6.81,43.56.49,97.53-41.31,122.01-11.06,6.47-3.82,24.95,8.86,21.02,20.46-6.34,44.61-18.41,43.08-43.67-.76-12.63-7.29-23.63-14.81-33.43-7.03-9.16-14.58-17.87-22.95-25.84-34.46-32.82-81.56-53.76-129.77-48.33-13.46,1.52-27.95,4.31-39.99,10.83s-22.42,21.49-13.46,34.37c3.19,4.58,7.58,6.23,12.99,5.28,36.95-6.46,57.06-45.25,53.72-80.21-1.66-17.36-6.85-37.15-20.54-49.07-14.76-12.84-34.26-13.4-52.75-11.17-10.38,1.26-20.66,3.08-30.76,5.79-8.64,2.32-18.17,4.84-23.72,12.42-6.74,9.21-2.96,18.64.53,28.19,2.97,8.13,5.19,16.58,6.5,25.13,4.76,30.97-2.86,65.28-23.75,89.15s-49.49,36.44-79.62,34.43c-27.4-1.83-53.39-19.37-66.78-43.53-6.24-11.25-11.5-26.5-8.18-39.51,1.83-7.15,7.45-11.56,13.18-15.73,7.03-5.11,13.97-10.35,20.61-15.96,26.05-22.03,48.04-49.47,61.39-81.01,7.34-17.33,13.97-37.78,7.54-56.44-6.42-18.62-22.87-30.63-42.9-28.46-18.21,1.97-36.21,10.73-52.1,19.47-15.52,8.54-30.06,19.04-43.21,30.9-6.33,5.71-12.29,11.8-17.92,18.2-4.1,4.66-4.59,11.67,0,16.26,4.18,4.18,12.14,4.68,16.26,0h0Z"/>
  <path class="cls-1" d="M59.84,532.05c.06-20.87.12-41.74.18-62.61l-3.37,8.13c-1.54,1.39-1.97-.58-.41.75.02.02,1.14.7,1.66,1.39,2.61,3.47,2.94,9.04,3.54,13.27,1.65,11.59,2.75,23.27,3.65,34.95,1.93,25.15,2.56,50.37,2.96,75.58.8,50.4.92,100.88,8.19,150.87,3.74,25.72,8.04,53.94,22.86,75.94,3.66,5.44,13.19,8.58,18.06,2.33,13.21-16.96,14.46-38.1,15.62-58.83,1.25-22.3.97-44.65.88-66.97-.09-22.33-.18-44.66-.26-66.99-.08-19.99-1.05-40.21.53-60.17,1.33-16.82,5.53-33.49,19.03-44.37l-18.06-2.33c13.98,32.34,18.99,67.91,23,102.64,2.1,18.2,4.02,36.42,6.57,54.56,2.37,16.89,3.63,37.61,13.98,51.83,4.29,5.89,12.4,7.99,18.06,2.33,6.52-6.52,9.17-15.01,10.76-23.87,1.78-9.92,3.16-19.9,4.4-29.9,2.36-18.92,3.96-37.91,6.03-56.86,2.01-18.46,4.54-36.87,8.72-54.98.98-4.24,2.04-8.45,3.21-12.64.67-2.39,1.32-4.81,2.11-7.17.13-.38,1.76-3.24,1.63-3.54.04.1-.47.49-.56.47l-2,.22c-1.44.58-2.68.3-3.73-.85.51-.17,1.56,2.35,1.78,2.78,1.73,3.44,3.03,7.13,4.38,10.72,12.08,32.06,18.61,65.89,30.6,97.98,5.98,16.01,13.08,32.03,22.93,46.09,5.49,7.84,14.56,15.06,24.61,10.71,10.95-4.74,10.12-17.08,10.44-27.09.7-22.09.87-44.2.5-66.3-.31-18.5-2.41-39.01,7.08-55.75h-19.86c13.29,21.94,26.58,43.87,39.88,65.81,6.82,11.25,13.63,22.5,20.45,33.75,5.71,9.43,11.63,19.61,22.11,24.33,12.12,5.46,25.7,2.44,33.05-9.01,6.29-9.81,10.48-21.78,14.44-32.69,8.38-23.06,15.95-49.12,4.81-72.53-9.54-20.05-29.47-36.13-47.49-48.27-4.51-3.04-9.17-5.88-13.94-8.49-2.18-1.19-4.4-2.29-6.59-3.45-.7-.37-2.37-1.72-3.14-1.76.4.02-1.29-.6-.47.12,1.09.96-1.13,1.43.75.06,1.12-.82,2.33-1.93,3.74-2.75,3.66-2.11,8.31-3.21,12.53-4.11,36.11-7.71,73.01,15.57,90.58,47.23,10.98,19.79,15.84,42.62,16.3,65.13.26,12.75-3.58,28.59,9.18,36.73,5.05,3.22,11.45,4.36,17.17,5.82,6.99,1.79,14.01,3.42,21.07,4.93-2.81-3.7-5.63-7.39-8.44-11.09.08,16.43-3.82,33.97-16.38,45.47-9.42,8.62-26.5,11.95-36.23,4.36-6.73-5.25-16.48-3.91-19.22,5.07-3.33,10.9,1.35,21.31,10.21,27.8,5.01,3.67,12.83.84,15.73-4.13,3.41-5.83.9-12.05-4.13-15.73,1.46,1.07-.41-1.42.13-.32-.06.94-.08.69-.08-.77-.17.93-.07.68.3-.73-6.41,1.69-12.81,3.38-19.22,5.07,19.26,15.03,45.83,13.59,64.95-1.22s27.04-40.96,26.92-64.88c-.02-4.81-3.53-10.04-8.44-11.09-5.83-1.25-11.63-2.58-17.42-4.01-2.74-.68-5.47-1.38-8.2-2.1-1.43-.38-2.86-.75-4.29-1.16-.8-.23-2.18-.12-1.62-.32.02,0,1.41,1.76.65,1.55-.15-.04,0-3.4-.01-3.19.08-2.67.28-5.33.34-8,.12-5.38.01-10.76-.34-16.13-1.4-21.35-6.26-42.23-15.46-61.59-17.67-37.18-53.82-64.34-95.44-66.84-18.75-1.13-45.08,2.85-55.52,20.58-6.9,11.72-1.09,24.54,9.96,30.85,9.56,5.46,19.14,10.39,28.07,16.92,8.37,6.12,16.19,13.23,23.17,20.9,6.21,6.82,11.8,14.84,12.92,24.24,1.34,11.2-2.2,22.68-5.43,33.26-3.47,11.35-7.72,22.43-12.86,33.13-1.05,2.18-2.03,4.65-3.48,6.61,0,0,.39.09.44.05-.68.66-1.36.39-2.31.28-.44-.05-2.24-.73-3.47-1.67-1.82-1.38-3.24-3.29-4.52-5.15-7.74-11.2-14.31-23.39-21.36-35.04-14.83-24.47-29.65-48.93-44.48-73.4-4.41-7.27-15.54-7.63-19.86,0-9.03,15.95-10.63,34.2-10.48,52.19.16,19.36.59,38.71.31,58.07-.14,9.75-.39,19.5-.74,29.25-.03.95-.36,2.87-.15,3.9l-.04.68c-.43,4.18,2.78,2.74,9.64-4.3.07.14-1.24-1.11-1.45-1.36-2.71-3.37-4.86-7.47-7-11.22-8.12-14.23-14.01-29.47-19.03-45.03-10.43-32.33-17.02-66.27-31.28-97.27-4.05-8.81-12.81-16.18-23.09-13.66-9.11,2.23-13.92,10.49-16.68,18.8-5.94,17.92-9.16,36.91-11.74,55.57-2.96,21.44-4.85,42.99-7.13,64.5-1.08,10.16-2.24,20.3-3.78,30.4-.76,5.01-1.51,10.05-2.57,15.01-.76,3.57-1.46,7.14-4.1,9.78l18.06,2.33c-5.05-6.93-6.44-15.18-7.98-23.46s-2.86-16.72-4-25.12c-2.41-17.72-4.13-35.54-6.26-53.3-4.41-36.75-10.54-72.98-25.31-107.15-3.23-7.48-13.01-6.4-18.06-2.33-28.96,23.34-26.52,65.73-26.39,99.13.18,44.97,1.16,90.01.24,134.97-.25,12.41-.8,24.83-2.01,37.18-.85,8.65-2.12,18.96-7.64,26.05l18.06,2.33c-7.9-11.74-11.78-25.03-14.8-38.72-3.19-14.45-5.59-29.08-7.3-43.77-3.61-31-4.66-62.22-5.22-93.4s-.62-61.34-2.12-91.97c-.78-15.91-1.95-31.81-3.79-47.64-1.59-13.73-1.95-30.45-12.5-40.8-5.93-5.82-15.33-8.68-23.42-6.52-3.47.92-6.91,2.85-9.43,5.44-4.23,4.35-3.37,10.41-3.39,15.96-.05,18.26-.1,36.52-.15,54.78-.04,14.8,22.96,14.82,23,0h0Z"/>
  <g>
    <path class="cls-1" d="M87.5,414.76c-1.63-1.39-2.63-2.86-3-4.42s-.04-3.09.99-4.61c1.18-1.74,2.74-2.7,4.69-2.87,1.95-.17,4,.48,6.16,1.94,2.08,1.41,3.4,3.09,3.96,5.03s.29,3.92-.81,5.91l-3.01-2.03c.61-1.29.76-2.46.46-3.5-.3-1.04-1.09-1.99-2.37-2.86-1.21-.82-2.36-1.2-3.46-1.14-1.1.06-1.95.55-2.57,1.46-.5.74-.63,1.48-.39,2.22s.85,1.55,1.83,2.44l2.24,1.96c3.67,3.14,4.41,6.31,2.23,9.54-.76,1.12-1.71,1.9-2.85,2.35-1.14.44-2.38.55-3.72.31-1.34-.24-2.71-.83-4.1-1.77-2.27-1.54-3.72-3.32-4.34-5.36-.62-2.04-.39-4.04.67-6.02l3.05,2.06c-.62,1.33-.73,2.54-.33,3.64s1.31,2.13,2.74,3.1c1.15.78,2.27,1.14,3.35,1.08,1.08-.06,1.93-.54,2.54-1.44.52-.77.65-1.57.38-2.41-.26-.84-.91-1.69-1.95-2.56l-2.39-2.04Z"/>
    <path class="cls-1" d="M100.43,430.31c.27.96.93,1.74,1.96,2.34.67.39,1.37.58,2.08.57s1.39-.2,2.02-.58c.63-.38,1.15-.92,1.56-1.63l.87.75c-.76,1.33-1.7,2.3-2.82,2.94s-2.25.96-3.41.98c-1.16.02-2.19-.23-3.08-.75-1.04-.6-1.84-1.38-2.39-2.32-.55-.95-.8-2.01-.74-3.19s.46-2.42,1.22-3.73l5.52-9.58,3.12,1.8-5.15,8.94c-.78,1.36-1.04,2.52-.76,3.48ZM104.49,437.18l8.81-15.28,3.09,1.78-8.81,15.28-3.09-1.78Z"/>
    <path class="cls-1" d="M125.47,420.34l-10.46,22.37-3.26-1.52,10.46-22.37,3.26,1.52ZM120.48,430.09c1.11-1.01,2.3-1.63,3.58-1.88,1.27-.25,2.55-.07,3.83.52,1.34.63,2.36,1.53,3.05,2.69.69,1.17,1.02,2.51,1,4.02-.02,1.51-.43,3.11-1.22,4.8-.79,1.68-1.76,3.03-2.91,4.03s-2.4,1.62-3.74,1.84c-1.34.22-2.68.02-4.02-.61-1.28-.6-2.23-1.47-2.86-2.61-.62-1.14-.9-2.47-.83-3.98.07-1.51.5-3.11,1.28-4.8.79-1.68,1.74-3.03,2.85-4.03ZM128.14,434.14c-.3-1.3-1.14-2.28-2.5-2.91-1.36-.64-2.65-.66-3.85-.06-1.2.6-2.21,1.76-3.01,3.49-.82,1.75-1.07,3.28-.77,4.6.3,1.32,1.14,2.3,2.5,2.93,1.36.64,2.65.65,3.85.04,1.2-.61,2.21-1.79,3.03-3.54.81-1.73,1.06-3.24.75-4.55Z"/>
    <path class="cls-1" d="M140.3,434.73l-5.22,16.85-3.44-1.06,5.22-16.85,3.44,1.06ZM145.46,440.43c-.44-.86-1.21-1.46-2.31-1.8-.7-.22-1.38-.24-2.04-.08s-1.25.49-1.76.98c-.51.49-.88,1.12-1.12,1.9l-1.03-.54c.45-1.45,1.14-2.6,2.06-3.44s1.93-1.41,3.03-1.67c1.1-.27,2.12-.26,3.07.04,1.12.35,2.03.91,2.73,1.69s1.15,1.74,1.34,2.88c.19,1.14.07,2.43-.38,3.85l-3.31,10.67-3.39-1.05,3.08-9.93c.45-1.46.46-2.62.02-3.49ZM156.16,443.74c-.44-.86-1.22-1.47-2.32-1.81-.7-.22-1.38-.24-2.04-.08-.66.16-1.25.49-1.77.98-.51.49-.89,1.12-1.13,1.89l-1.07-.55c.45-1.45,1.14-2.6,2.07-3.44.93-.84,1.94-1.4,3.05-1.67,1.1-.27,2.13-.25,3.1.05,1.12.35,2.03.91,2.74,1.69.71.78,1.16,1.74,1.35,2.89s.07,2.43-.38,3.85l-3.31,10.67-3.39-1.05,3.08-9.92c.45-1.46.46-2.62.02-3.49Z"/>
    <path class="cls-1" d="M168.47,442.08l-3.08,17.37-3.54-.63,3.08-17.37,3.54.63ZM169.71,436.09l-.68,3.82-3.87-.68.68-3.82,3.87.69Z"/>
    <path class="cls-1" d="M180.23,443.52l-.32,3-9.56-1.01.32-3,9.55,1.01ZM178.37,461.06l-2-.21c-.9-.1-1.7-.35-2.39-.77-.7-.42-1.22-1.01-1.58-1.78s-.47-1.74-.35-2.89l1.81-17.07,3.54.38-1.76,16.59c-.09.88,0,1.49.28,1.84s.68.55,1.2.61l1.57.17-.33,3.14Z"/>
    <path class="cls-1" d="M192.67,463.89c.92-.07,1.62-.28,2.09-.61.47-.33.82-.88,1.05-1.64l.29-.98-8.08-16.65,3.79-.3,6.02,13.06,3.72-13.83,3.74-.3-5.52,19c-.35,1.24-.82,2.25-1.38,3.03-.57.78-1.25,1.36-2.06,1.75-.81.39-1.75.63-2.84.71l-2.44.19-.26-3.29,1.89-.15Z"/>
    <path class="cls-1" d="M207.72,446.1c.35-1.51,1.05-2.79,2.1-3.84s2.38-1.77,4.02-2.18c1.63-.41,3.15-.39,4.56.05,1.41.44,2.62,1.24,3.63,2.41,1.01,1.17,1.74,2.66,2.19,4.46.45,1.8.5,3.47.16,5-.34,1.53-1.03,2.82-2.07,3.87-1.04,1.05-2.38,1.78-4,2.18-1.63.41-3.15.39-4.57-.06-1.42-.44-2.64-1.26-3.66-2.45-1.02-1.19-1.76-2.68-2.21-4.49-.45-1.8-.5-3.46-.14-4.97ZM218.38,443.88c-1.06-.82-2.32-1.05-3.78-.69s-2.48,1.16-3.04,2.38c-.57,1.23-.62,2.76-.16,4.61.47,1.87,1.24,3.22,2.31,4.05,1.08.83,2.35,1.06,3.81.7,1.46-.36,2.47-1.16,3.01-2.39s.59-2.79.12-4.66c-.46-1.85-1.22-3.18-2.27-4.01Z"/>
    <path class="cls-1" d="M234.44,448.14c.94.34,1.96.27,3.04-.23.71-.32,1.27-.77,1.67-1.36.41-.58.64-1.24.71-1.98.06-.73-.08-1.47-.42-2.22l1.12-.27c.63,1.39.88,2.73.74,4-.14,1.27-.53,2.39-1.2,3.34-.66.95-1.46,1.64-2.4,2.07-1.1.5-2.19.69-3.28.58-1.09-.11-2.1-.52-3.02-1.26-.92-.73-1.7-1.79-2.32-3.17l-4.56-10.08,3.28-1.48,4.26,9.4c.64,1.42,1.44,2.31,2.38,2.65ZM242.39,448.85l-7.27-16.07,3.24-1.47,7.28,16.07-3.25,1.47Z"/>
    <path class="cls-1" d="M244.17,427.77l9.01,15.17-3.09,1.84-9.01-15.17,3.09-1.84ZM250.08,428.38c-.81.48-1.43,1.05-1.87,1.7-.44.66-.68,1.35-.72,2.07-.04.72.13,1.42.53,2.09l-1.09.4c-.79-1.33-1.22-2.64-1.27-3.91-.06-1.27.16-2.41.64-3.4.48-1,1.13-1.74,1.96-2.23l.7-.42,1.92,3.23-.79.47Z"/>
    <path class="cls-1" d="M278.85,426.17l-2.97,2-6.56-9.71c-.6-.89-1.37-1.4-2.3-1.56-.93-.15-1.89.11-2.87.77-1.85,1.25-2.25,2.86-1.2,4.83l-3.07,2.07c-.62-1.06-.92-2.15-.89-3.28.02-1.13.34-2.21.94-3.24.61-1.03,1.49-1.94,2.65-2.73,1.22-.82,2.45-1.31,3.68-1.45,1.24-.15,2.4.02,3.48.51,1.08.49,2,1.28,2.74,2.38l6.35,9.4ZM274.39,425.55c.16,1.24-.03,2.39-.55,3.45-.52,1.06-1.36,1.97-2.5,2.74-.95.64-1.92,1.02-2.9,1.14-.98.12-1.9-.02-2.77-.4-.86-.38-1.58-1-2.15-1.85-.86-1.28-1.12-2.56-.79-3.86s1.24-2.53,2.71-3.69l3.84-3.06c.26-.19.41-.38.45-.57.04-.19-.02-.4-.18-.64l1.98,2.84-4.18,3.22c-1.47,1.15-1.8,2.33-.99,3.54.45.66,1.06,1.02,1.83,1.08s1.58-.2,2.42-.77c1.14-.77,1.83-1.76,2.06-2.96.23-1.2-.05-2.39-.84-3.56l.97-.49c.89,1.33,1.42,2.61,1.57,3.85Z"/>
    <path class="cls-1" d="M275.34,407.36l12.27,19.92-3.06,1.89-12.27-19.91,3.06-1.89ZM277.04,410.89c-.23-1.48-.1-2.82.39-4.02.49-1.2,1.34-2.17,2.54-2.91,1.26-.78,2.57-1.13,3.92-1.07,1.35.06,2.65.52,3.91,1.37,1.25.85,2.37,2.07,3.34,3.65.97,1.58,1.57,3.13,1.77,4.65.21,1.52.04,2.9-.51,4.14-.55,1.24-1.45,2.25-2.72,3.03-1.2.74-2.45,1.06-3.75.95s-2.56-.6-3.79-1.49c-1.23-.89-2.33-2.12-3.3-3.71-.97-1.58-1.58-3.11-1.81-4.59ZM284.64,406.7c-1.26-.46-2.53-.3-3.81.49-1.28.79-2,1.85-2.16,3.19-.16,1.33.26,2.81,1.26,4.43,1.01,1.64,2.15,2.7,3.42,3.17,1.27.47,2.54.31,3.83-.48,1.28-.79,2-1.86,2.14-3.2.15-1.34-.29-2.83-1.3-4.47-1-1.62-2.13-2.66-3.39-3.13Z"/>
    <path class="cls-1" d="M293.69,396.74l10,21.15-3.25,1.54-10-21.15,3.25-1.54ZM294.99,400.43c-.07-1.5.21-2.81.83-3.95.62-1.14,1.57-2.01,2.85-2.61,1.34-.63,2.68-.84,4.02-.63,1.34.21,2.58.81,3.73,1.8s2.12,2.32,2.92,4c.79,1.68,1.21,3.28,1.25,4.82s-.28,2.88-.97,4.06c-.68,1.17-1.69,2.08-3.03,2.71-1.28.6-2.56.78-3.83.53s-2.48-.88-3.6-1.9c-1.12-1.02-2.08-2.37-2.87-4.05-.79-1.68-1.22-3.27-1.29-4.77ZM303,397.11c-1.2-.6-2.48-.57-3.84.07s-2.19,1.62-2.5,2.93c-.3,1.31-.05,2.82.76,4.55.82,1.74,1.84,2.92,3.05,3.52,1.21.61,2.49.59,3.86-.06,1.36-.64,2.19-1.62,2.48-2.94s.03-2.85-.8-4.59c-.81-1.72-1.82-2.88-3.02-3.48Z"/>
    <path class="cls-1" d="M310.64,381.91l8.37,23.24-3.38,1.22-8.37-23.24,3.38-1.22Z"/>
    <path class="cls-1" d="M318.72,380.32l1.12,3.71-3.76,1.14-1.12-3.71,3.76-1.14ZM320.33,386.23l5.11,16.89-3.44,1.04-5.11-16.89,3.44-1.04Z"/>
    <path class="cls-1" d="M326.08,388.52c.42-1.49,1.17-2.74,2.26-3.74,1.09-1,2.46-1.66,4.09-1.99,1.49-.3,2.88-.28,4.18.06,1.3.34,2.41.97,3.33,1.89.92.92,1.56,2.11,1.91,3.56l-3.58.72c-.3-1.26-.92-2.15-1.86-2.68-.94-.53-2.05-.66-3.35-.4-1.48.3-2.52,1.04-3.13,2.23-.61,1.19-.73,2.73-.35,4.6.38,1.89,1.08,3.28,2.11,4.16,1.03.88,2.28,1.17,3.76.88,1.28-.26,2.26-.78,2.94-1.57.67-.79.92-1.78.74-2.98l3.58-.72c.2,1.43.05,2.73-.46,3.9-.51,1.16-1.3,2.13-2.35,2.91s-2.33,1.31-3.82,1.61c-1.64.33-3.15.24-4.54-.27-1.39-.51-2.57-1.38-3.53-2.61-.97-1.23-1.63-2.76-2-4.58-.36-1.82-.34-3.48.08-4.97Z"/>
    <path class="cls-1" d="M360.93,397.69l-3.57.25-.81-11.69c-.07-1.07-.48-1.9-1.21-2.5-.73-.6-1.69-.86-2.87-.77-2.23.15-3.38,1.35-3.46,3.58l-3.69.26c0-1.23.29-2.32.87-3.29.58-.97,1.4-1.74,2.44-2.33,1.04-.59,2.27-.93,3.66-1.03,1.47-.1,2.77.09,3.92.59s2.06,1.22,2.76,2.19,1.09,2.11,1.18,3.44l.78,11.32ZM357.38,394.91c-.49,1.15-1.23,2.06-2.21,2.71-.98.65-2.16,1.02-3.54,1.12-1.15.08-2.17-.08-3.08-.47-.91-.39-1.64-.97-2.19-1.73-.55-.76-.86-1.66-.93-2.68-.11-1.54.31-2.78,1.26-3.74s2.34-1.57,4.19-1.84l4.86-.73c.32-.03.55-.12.68-.27.13-.14.18-.36.16-.64l.29,3.45-5.23.7c-1.85.26-2.73,1.11-2.63,2.57.06.8.4,1.41,1.04,1.85s1.47.61,2.49.54c1.37-.1,2.46-.61,3.26-1.53.8-.93,1.15-2.1,1.06-3.5l1.08.07c.11,1.6-.08,2.97-.57,4.12Z"/>
    <path class="cls-1" d="M372.59,380.41l-.08,3.02-9.61-.26.08-3.02,9.61.26ZM372.11,398.04l-2.01-.05c-.9-.02-1.72-.22-2.44-.58-.73-.36-1.3-.91-1.71-1.65s-.61-1.69-.57-2.86l.46-17.16,3.56.1-.45,16.68c-.02.88.12,1.49.43,1.81.31.33.72.5,1.25.51l1.58.04-.08,3.16Z"/>
    <path class="cls-1" d="M379.28,380.98l-1.49,17.58-3.58-.3,1.49-17.58,3.58.3ZM379.97,374.89l-.33,3.87-3.91-.33.33-3.87,3.91.33Z"/>
    <path class="cls-1" d="M383.67,385.23c.92-1.25,2.07-2.15,3.45-2.69s2.89-.68,4.55-.41,3.05.89,4.17,1.85,1.91,2.18,2.38,3.66c.47,1.48.55,3.13.24,4.97-.3,1.83-.91,3.38-1.83,4.65-.92,1.27-2.07,2.18-3.44,2.73-1.37.55-2.89.69-4.54.42-1.66-.27-3.05-.89-4.17-1.86-1.13-.97-1.92-2.2-2.39-3.69-.47-1.5-.55-3.16-.25-4.99.3-1.83.92-3.37,1.84-4.62ZM394.34,387.42c-.65-1.17-1.71-1.88-3.2-2.13-1.49-.25-2.73.08-3.74.98s-1.66,2.29-1.97,4.17c-.31,1.9-.14,3.45.52,4.64.66,1.19,1.73,1.9,3.22,2.15,1.49.25,2.72-.09,3.71-1,.99-.91,1.64-2.32,1.96-4.23.31-1.88.14-3.41-.5-4.58Z"/>
    <path class="cls-1" d="M407.56,385.89l-4.65,17.02-3.47-.95,4.65-17.02,3.47.95ZM413.47,391.57c-.54-.87-1.41-1.46-2.62-1.79-.77-.21-1.51-.23-2.22-.06s-1.32.51-1.83,1.01c-.51.5-.88,1.14-1.09,1.92l-1.07-.51c.41-1.46,1.08-2.62,2.01-3.49.93-.87,1.95-1.45,3.08-1.75,1.13-.3,2.2-.3,3.21-.03,1.21.33,2.21.88,3,1.65.79.77,1.32,1.73,1.57,2.87s.19,2.44-.2,3.88l-2.94,10.77-3.44-.94,2.74-10.02c.4-1.47.34-2.65-.2-3.51Z"/>
    <path class="cls-1" d="M436.08,387.61l-9.23,22.91-3.34-1.34,9.23-22.91,3.34,1.34ZM438.68,400.49c-.43-.92-1.23-1.62-2.39-2.09-.74-.3-1.47-.4-2.2-.31-.72.09-1.37.35-1.95.79s-1.01,1.03-1.32,1.78l-.99-.62c.58-1.4,1.38-2.48,2.39-3.24s2.1-1.22,3.26-1.38c1.16-.16,2.23-.04,3.2.35,1.16.47,2.09,1.13,2.78,1.99.69.86,1.1,1.87,1.22,3.03.12,1.17-.09,2.44-.65,3.83l-4.17,10.36-3.29-1.32,3.88-9.64c.57-1.42.64-2.59.21-3.51Z"/>
    <path class="cls-1" d="M447.28,404.18c1.25-.95,2.61-1.49,4.1-1.62,1.49-.12,3,.19,4.54.94,1.46.71,2.58,1.69,3.37,2.94s1.21,2.64,1.25,4.19-.34,3.15-1.15,4.8l-.47.97-12.14-5.94,1.15-2.34,8.69,4.25c.52-1.33.59-2.56.21-3.68s-1.15-1.97-2.31-2.53c-1.41-.69-2.72-.75-3.92-.17-1.2.58-2.24,1.78-3.13,3.59-.91,1.87-1.22,3.48-.91,4.84s1.21,2.4,2.71,3.13c1.08.53,2.07.71,2.96.55.89-.16,1.63-.62,2.22-1.37l3.28,1.6c-1.16,1.54-2.56,2.49-4.22,2.86-1.66.36-3.5.05-5.52-.94-1.61-.79-2.84-1.81-3.69-3.05-.85-1.24-1.29-2.63-1.32-4.17-.03-1.54.37-3.16,1.2-4.86.83-1.7,1.87-3.03,3.12-3.98Z"/>
    <path class="cls-1" d="M469.5,411.12l-8.55,15.43-3.15-1.74,8.55-15.43,3.15,1.74ZM471.94,416.53c-.82-.46-1.63-.71-2.41-.75s-1.51.09-2.15.42c-.65.33-1.16.83-1.53,1.51l-.9-.74c.75-1.36,1.66-2.38,2.74-3.07,1.07-.69,2.16-1.08,3.26-1.17,1.1-.09,2.07.1,2.91.57l.71.4-1.82,3.29-.81-.45Z"/>
    <path class="cls-1" d="M474.77,418.55c1.33-.83,2.74-1.24,4.23-1.23s2.97.47,4.43,1.36c1.38.85,2.41,1.92,3.08,3.24s.95,2.74.85,4.29c-.11,1.55-.64,3.11-1.59,4.67l-.56.92-11.53-7.05,1.36-2.23,8.26,5.05c.64-1.27.83-2.49.55-3.64s-.97-2.07-2.06-2.74c-1.34-.82-2.64-1-3.89-.54-1.25.46-2.4,1.56-3.45,3.28-1.09,1.78-1.54,3.35-1.36,4.73s.99,2.5,2.41,3.37c1.03.63,1.99.9,2.9.82.91-.08,1.68-.47,2.34-1.16l3.11,1.9c-1.29,1.43-2.78,2.24-4.47,2.45-1.69.2-3.49-.28-5.4-1.45-1.53-.94-2.66-2.06-3.39-3.38s-1.04-2.74-.93-4.28c.11-1.54.66-3.11,1.65-4.73.99-1.61,2.15-2.84,3.48-3.67Z"/>
    <path class="cls-1" d="M483.22,439.97l1.93-2.93,3.4,2.24-1.93,2.93-3.39-2.24ZM486.9,435.46l9.14-14.53,3,1.98-9.77,14.12-2.38-1.57Z"/>
  </g>
</svg>