<?xml version="1.0" encoding="UTF-8"?>
<svg id="Layer_1" data-name="Layer 1" xmlns="http://www.w3.org/2000/svg" viewBox="0 0 841.89 595.28">
  <defs>
    <style>
      .cls-1 {
        font-family: OverusedGrotesk-Italic, 'Overused Grotesk';
        font-size: 65px;
        font-style: italic;
        font-variation-settings: 'wght' 400, 'slnt' -10;
      }
    </style>
  </defs>
  <text class="cls-1" transform="translate(347.78 441.63) rotate(-145.55)"><tspan x="0" y="0">D</tspan></text>
  <text class="cls-1" transform="translate(314.84 419.62) rotate(-130.94)"><tspan x="0" y="0">O</tspan></text>
  <text class="cls-1" transform="translate(286.85 387.46) rotate(-116.62)"><tspan x="0" y="0">N</tspan></text>
  <text class="cls-1" transform="translate(269.38 353.34) rotate(-102.75)"><tspan x="0" y="0">A</tspan></text>
  <text class="cls-1" transform="translate(261.62 322.71) rotate(-91.97)"><tspan x="0" y="0">T</tspan></text>
  <text class="cls-1" transform="translate(260.27 286.03) rotate(-79.47)"><tspan x="0" y="0">E</tspan></text>
  <text class="cls-1" transform="translate(267.28 252.21) rotate(-71.27)"><tspan x="0" y="0"> </tspan></text>
  <text class="cls-1" transform="translate(269.8 241.04) rotate(-62.3)"><tspan x="0" y="0">H</tspan></text>
  <text class="cls-1" transform="translate(287.51 207.28) rotate(-49.39)"><tspan x="0" y="0">E</tspan></text>
  <text class="cls-1" transform="translate(309.35 181.28) rotate(-37.02)"><tspan x="0" y="0">R</tspan></text>
  <text class="cls-1" transform="translate(338.13 159.42) rotate(-24.53)"><tspan x="0" y="0">E</tspan></text>
  <text class="cls-1" transform="translate(369.87 145.73) rotate(-16.24)"><tspan x="0" y="0"> </tspan></text>
  <text class="cls-1" transform="translate(380.4 141.31) rotate(-7)"><tspan x="0" y="0">D</tspan></text>
  <text class="cls-1" transform="translate(419.67 135.98) rotate(7.55)"><tspan x="0" y="0">O</tspan></text>
  <text class="cls-1" transform="translate(461.9 141.53) rotate(21.9)"><tspan x="0" y="0">N</tspan></text>
  <text class="cls-1" transform="translate(497.61 155.51) rotate(35.77)"><tspan x="0" y="0">A</tspan></text>
  <text class="cls-1" transform="translate(523.7 173.31) rotate(46.56)"><tspan x="0" y="0">T</tspan></text>
  <text class="cls-1" transform="translate(549.02 199.91) rotate(59.02)"><tspan x="0" y="0">E</tspan></text>
  <text class="cls-1" transform="translate(566.18 229.88) rotate(67.28)"><tspan x="0" y="0"> </tspan></text>
  <text class="cls-1" transform="translate(571.68 239.93) rotate(76.28)"><tspan x="0" y="0">H</tspan></text>
  <text class="cls-1" transform="translate(580.73 276.96) rotate(89.1)"><tspan x="0" y="0">E</tspan></text>
  <text class="cls-1" transform="translate(581.63 310.89) rotate(101.51)"><tspan x="0" y="0">R</tspan></text>
  <text class="cls-1" transform="translate(574.53 346.35) rotate(113.99)"><tspan x="0" y="0">E</tspan></text>
  <text class="cls-1" transform="translate(559.82 377.62) rotate(122.26)"><tspan x="0" y="0"> </tspan></text>
  <text class="cls-1" transform="translate(554.88 387.9) rotate(131.53)"><tspan x="0" y="0">D</tspan></text>
  <text class="cls-1" transform="translate(528.98 417.89) rotate(146.02)"><tspan x="0" y="0">O</tspan></text>
  <text class="cls-1" transform="translate(493.66 441.76) rotate(160.48)"><tspan x="0" y="0">N</tspan></text>
  <text class="cls-1" transform="translate(457.63 454.87) rotate(174.3)"><tspan x="0" y="0">A</tspan></text>
  <text class="cls-1" transform="translate(426.27 458.81) rotate(-174.97)"><tspan x="0" y="0">T</tspan></text>
  <text class="cls-1" transform="translate(389.73 455.69) rotate(-162.45)"><tspan x="0" y="0">E</tspan></text>
</svg>