<?xml version="1.0" encoding="UTF-8"?>
<svg id="Layer_1" data-name="Layer 1" xmlns="http://www.w3.org/2000/svg" viewBox="0 0 841.89 595.28">
  <defs>
    <style>
      .cls-1 {
        font-size: 59px;
      }

      .cls-1, .cls-2 {
        font-family: OverusedGrotesk-Italic, 'Overused Grotesk';
        font-style: italic;
        font-variation-settings: 'wght' 400, 'slnt' -10;
      }

      .cls-2 {
        font-size: 54px;
      }
    </style>
  </defs>
  <text class="cls-1" transform="translate(347.71 441.09) rotate(-146.79)"><tspan x="0" y="0">S</tspan></text>
  <text class="cls-1" transform="translate(320.33 423.53) rotate(-134.78)"><tspan x="0" y="0">U</tspan></text>
  <text class="cls-1" transform="translate(295.76 399.01) rotate(-122.66)"><tspan x="0" y="0">B</tspan></text>
  <text class="cls-1" transform="translate(276.73 370.98) rotate(-108.74)"><tspan x="0" y="0">M</tspan></text>
  <text class="cls-1" transform="translate(263.72 328.42) rotate(-99.04)"><tspan x="0" y="0">I</tspan></text>
  <text class="cls-1" transform="translate(261.27 318.85) rotate(-91.24)"><tspan x="0" y="0">T</tspan></text>
  <text class="cls-1" transform="translate(261.26 284.88) rotate(-83.34)"><tspan x="0" y="0"> </tspan></text>
  <text class="cls-1" transform="translate(261.64 274.34) rotate(-75.61)"><tspan x="0" y="0">Y</tspan></text>
  <text class="cls-1" transform="translate(268.01 246) rotate(-64.09)"><tspan x="0" y="0">O</tspan></text>
  <text class="cls-1" transform="translate(284.98 211.07) rotate(-50.93)"><tspan x="0" y="0">U</tspan></text>
  <text class="cls-1" transform="translate(306.7 184.1) rotate(-38.85)"><tspan x="0" y="0">R</tspan></text>
  <text class="cls-1" transform="translate(333.24 163.57) rotate(-31.16)"><tspan x="0" y="0"> </tspan></text>
  <text class="cls-1" transform="translate(340.66 156.25) rotate(-19.61)"><tspan x="0" y="0">W</tspan></text>
  <text class="cls-1" transform="translate(389.99 139.21) rotate(-3.72)"><tspan x="0" y="0">O</tspan></text>
  <text class="cls-1" transform="translate(428.85 136.8) rotate(9)"><tspan x="0" y="0">R</tspan></text>
  <text class="cls-1" transform="translate(461.4 141.81) rotate(20.53)"><tspan x="0" y="0">K</tspan></text>
  <text class="cls-1" transform="translate(491.63 153.83) rotate(28.26)"><tspan x="0" y="0"> </tspan></text>
  <text class="cls-1" transform="translate(501.3 157.91) rotate(36.48)"><tspan x="0" y="0">H</tspan></text>
  <text class="cls-1" transform="translate(529.25 178.59) rotate(48.18)"><tspan x="0" y="0">E</tspan></text>
  <text class="cls-1" transform="translate(550.11 201.47) rotate(59.47)"><tspan x="0" y="0">R</tspan></text>
  <text class="cls-1" transform="translate(566.94 229.84) rotate(70.94)"><tspan x="0" y="0">E</tspan></text>
  <text class="cls-1" transform="translate(576.64 259.77) rotate(78.48)"><tspan x="0" y="0"> </tspan></text>
  <text class="cls-1" transform="translate(579.57 269.89) rotate(86.27)"><tspan x="0" y="0">S</tspan></text>
  <text class="cls-1" transform="translate(582 302.39) rotate(98.19)"><tspan x="0" y="0">U</tspan></text>
  <text class="cls-1" transform="translate(577.24 336.72) rotate(110.39)"><tspan x="0" y="0">B</tspan></text>
  <text class="cls-1" transform="translate(566.25 368.8) rotate(124.33)"><tspan x="0" y="0">M</tspan></text>
  <text class="cls-1" transform="translate(540.06 404.77) rotate(134.02)"><tspan x="0" y="0">I</tspan></text>
  <text class="cls-1" transform="translate(533.86 412.47) rotate(141.75)"><tspan x="0" y="0">T</tspan></text>
  <text class="cls-1" transform="translate(506.75 432.93) rotate(149.65)"><tspan x="0" y="0"> </tspan></text>
  <text class="cls-1" transform="translate(498.12 438.98) rotate(157.46)"><tspan x="0" y="0">Y</tspan></text>
  <text class="cls-1" transform="translate(471.65 450.91) rotate(169.03)"><tspan x="0" y="0">O</tspan></text>
  <text class="cls-1" transform="translate(433.49 458.29) rotate(-177.92)"><tspan x="0" y="0">U</tspan></text>
  <text class="cls-1" transform="translate(398.81 457.14) rotate(-165.94)"><tspan x="0" y="0">R</tspan></text>
  <text class="cls-2" transform="translate(366.51 448.31) rotate(-158.26)"><tspan x="0" y="0"> </tspan></text>
</svg>