<?xml version="1.0" encoding="UTF-8"?>
<svg id="Layer_1" data-name="Layer 1" xmlns="http://www.w3.org/2000/svg" viewBox="0 0 841.89 595.28">
  <defs>
    <style>
      .cls-1 {
        font-size: 48px;
      }

      .cls-1, .cls-2, .cls-3 {
        font-family: OverusedGrotesk-Italic, 'Overused Grotesk';
        font-style: italic;
        font-variation-settings: 'wght' 400, 'slnt' -10;
      }

      .cls-2, .cls-3 {
        font-size: 54px;
      }

      .cls-3 {
        fill: #231f20;
      }
    </style>
  </defs>
  <text class="cls-2" transform="translate(347.67 441.06) rotate(-146.77)"><tspan x="0" y="0">A</tspan></text>
  <text class="cls-2" transform="translate(320.19 423.11) rotate(-135.45)"><tspan x="0" y="0">P</tspan></text>
  <text class="cls-2" transform="translate(298.36 401.83) rotate(-124.71)"><tspan x="0" y="0">P</tspan></text>
  <text class="cls-2" transform="translate(280.98 376.74) rotate(-114.34)"><tspan x="0" y="0">L</tspan></text>
  <text class="cls-2" transform="translate(271.63 357.61) rotate(-106.25)"><tspan x="0" y="0">Y</tspan></text>
  <text class="cls-2" transform="translate(263.72 328.4) rotate(-99.09)"><tspan x="0" y="0"> </tspan></text>
  <text class="cls-2" transform="translate(261.38 318.99) rotate(-91.6)"><tspan x="0" y="0">H</tspan></text>
  <text class="cls-2" transform="translate(260.51 287.02) rotate(-80.89)"><tspan x="0" y="0">E</tspan></text>
  <text class="cls-2" transform="translate(264.79 258.9) rotate(-70.44)"><tspan x="0" y="0">R</tspan></text>
  <text class="cls-2" transform="translate(274.87 230.33) rotate(-59.92)"><tspan x="0" y="0">E</tspan></text>
  <text class="cls-2" transform="translate(289.81 205.58) rotate(-52.96)"><tspan x="0" y="0"> </tspan></text>
  <text class="cls-3" transform="translate(294.91 197.39) rotate(-45.29)"><tspan x="0" y="0">A</tspan></text>
  <text class="cls-3" transform="translate(317.98 174.02) rotate(-34.14)"><tspan x="0" y="0">P</tspan></text>
  <text class="cls-3" transform="translate(343.11 156.79) rotate(-23.23)"><tspan x="0" y="0">P</tspan></text>
  <text class="cls-3" transform="translate(371.17 144.75) rotate(-12.83)"><tspan x="0" y="0">L</tspan></text>
  <text class="cls-3" transform="translate(391.78 139.42) rotate(-4.79)"><tspan x="0" y="0">Y</tspan></text>
  <text class="cls-3" transform="translate(421.99 137.46) rotate(2.31)"><tspan x="0" y="0"> </tspan></text>
  <text class="cls-3" transform="translate(431.67 137.03) rotate(9.78)"><tspan x="0" y="0">H</tspan></text>
  <text class="cls-3" transform="translate(463.17 142.48) rotate(20.52)"><tspan x="0" y="0">E</tspan></text>
  <text class="cls-3" transform="translate(489.9 152.24) rotate(31.06)"><tspan x="0" y="0">R</tspan></text>
  <text class="cls-3" transform="translate(515.87 167.81) rotate(41.6)"><tspan x="0" y="0">E</tspan></text>
  <text class="cls-3" transform="translate(537.15 187.38) rotate(48.46)"><tspan x="0" y="0"> </tspan></text>
  <text class="cls-3" transform="translate(544.19 194.04) rotate(56.03)"><tspan x="0" y="0">A</tspan></text>
  <text class="cls-3" transform="translate(562.57 221.22) rotate(67.35)"><tspan x="0" y="0">P</tspan></text>
  <text class="cls-3" transform="translate(574.44 249.28) rotate(78.28)"><tspan x="0" y="0">P</tspan></text>
  <text class="cls-3" transform="translate(580.64 279.16) rotate(88.6)"><tspan x="0" y="0">L</tspan></text>
  <text class="cls-3" transform="translate(581.77 300.45) rotate(96.59)"><tspan x="0" y="0">Y</tspan></text>
  <text class="cls-3" transform="translate(577.73 330.44) rotate(103.69)"><tspan x="0" y="0"> </tspan></text>
  <text class="cls-3" transform="translate(576.25 340.01) rotate(111.19)"><tspan x="0" y="0">H</tspan></text>
  <text class="cls-3" transform="translate(564.68 369.8) rotate(122.02)"><tspan x="0" y="0">E</tspan></text>
  <text class="cls-3" transform="translate(549.79 394.03) rotate(132.55)"><tspan x="0" y="0">R</tspan></text>
  <text class="cls-3" transform="translate(529.32 416.4) rotate(142.93)"><tspan x="0" y="0">E</tspan></text>
  <text class="cls-3" transform="translate(505.95 433.42) rotate(149.8)"><tspan x="0" y="0"> </tspan></text>
  <text class="cls-3" transform="translate(498.07 439.02) rotate(157.52)"><tspan x="0" y="0">A</tspan></text>
  <text class="cls-3" transform="translate(467.79 451.6) rotate(168.85)"><tspan x="0" y="0">P</tspan></text>
  <text class="cls-3" transform="translate(437.9 457.64) rotate(179.71)"><tspan x="0" y="0">P</tspan></text>
  <text class="cls-3" transform="translate(407.38 457.8) rotate(-170.02)"><tspan x="0" y="0">L</tspan></text>
  <text class="cls-3" transform="translate(386.3 454.72) rotate(-162.02)"><tspan x="0" y="0">Y</tspan></text>
  <text class="cls-1" transform="translate(357.67 444.8) rotate(-155.06)"><tspan x="0" y="0"> </tspan></text>
</svg>