<svg width="2644" height="1695" viewBox="0 0 2644 1695" fill="none" xmlns="http://www.w3.org/2000/svg">
<g opacity="0.5" clip-path="url(#clip0_4_39)" filter="url(#filter0_fn_4_39)">
<rect width="2280" height="1331" transform="translate(181.7 181.7)" fill="white"/>
<ellipse cx="339.7" cy="402.2" rx="308" ry="315.5" fill="#CBEBFB"/>
<ellipse cx="1422.7" cy="936.2" rx="308" ry="315.5" fill="#CBEBFB"/>
<ellipse cx="277.7" cy="1033.2" rx="308" ry="315.5" fill="#B2D7E9"/>
<ellipse cx="1037.7" cy="323.2" rx="308" ry="315.5" fill="#B2D7E9"/>
<ellipse cx="938.7" cy="1376.2" rx="457" ry="315.5" fill="#A0DDFB"/>
<ellipse cx="2070.7" cy="917.2" rx="457" ry="315.5" fill="#A0DDFB"/>
<ellipse cx="838.679" cy="810.451" rx="238" ry="315.5" transform="rotate(72.276 838.679 810.451)" fill="#A0DDFB"/>
<ellipse cx="1802.7" cy="364.2" rx="457" ry="315.5" fill="#CBEBFB"/>
<ellipse cx="1371.2" cy="638.7" rx="208.5" ry="177" fill="#CBEBFB"/>
<ellipse cx="2070.2" cy="1251.7" rx="208.5" ry="177" fill="#CBEBFB"/>
<ellipse cx="776.2" cy="502.7" rx="208.5" ry="177" fill="#CBEBFB"/>
<ellipse cx="1285.2" cy="987.7" rx="208.5" ry="177" fill="#CBEBFB"/>
<ellipse cx="1285.2" cy="810.7" rx="208.5" ry="177" fill="#CBEBFB"/>
<ellipse cx="1802.7" cy="364.2" rx="457" ry="315.5" fill="#CBEBFB"/>
<ellipse cx="281.7" cy="1471.7" rx="250" ry="220" fill="#CBEBFB"/>
<ellipse cx="2378.7" cy="456.2" rx="308" ry="315.5" fill="#B2D7E9"/>
<ellipse cx="1679.7" cy="1412.2" rx="308" ry="315.5" fill="#CBEBFB"/>
<ellipse cx="2312.7" cy="1512.2" rx="308" ry="315.5" fill="#CBEBFB"/>
<g style="mix-blend-mode:color-burn" filter="url(#filter1_n_4_39)">
<path d="M1751.88 113.594C1751.25 113.378 1710.11 99.2259 1646.74 77.67C1613.98 66.526 1591.69 72.4387 1530.42 100.258C1502.13 113.103 1462 141.803 1435.57 159.278C1409.13 176.753 1398.35 185.082 1372.66 209.111C1346.98 233.14 1306.72 272.618 1283.46 296.872C1240.24 341.936 1218.09 415.534 1208.13 453.054C1204.05 468.442 1213.66 488.065 1223.17 507.531C1232.61 526.859 1266.31 539.579 1303.98 553.143C1323.98 560.343 1336 559.761 1385.06 550.563C1428.53 542.413 1509.63 523.037 1576.55 502.913C1643.48 482.79 1693.75 461.443 1724.47 449.295C1783.71 425.861 1821.14 442.6 1839.39 456.829C1855.78 469.615 1852.56 503.357 1849.53 534.855C1841.9 614.049 1813.77 655.761 1788.02 684.351C1781.26 691.853 1773.55 696.113 1732.26 711.709C1690.98 727.305 1615.7 753.109 1563.42 770.503C1484.21 796.856 1446.72 810.888 1430.71 821.833C1410.49 835.661 1393.61 865.54 1370.47 917.263C1352.65 957.099 1326.87 1026.66 1311.95 1066.39C1288.16 1129.78 1292.91 1173.03 1298.65 1197.92C1302.91 1216.35 1323.84 1229.49 1364.15 1252.42C1393.88 1269.33 1446 1289.12 1477.23 1301.46C1517.63 1317.43 1540.2 1319.34 1573.03 1319.34C1593.64 1319.34 1622.63 1315.73 1673.75 1303.56C1724.87 1291.39 1797.33 1269.85 1882.89 1234.97C1968.45 1200.09 2064.91 1152.53 2123.06 1122.1C2198.12 1079.78 2222.14 1061.52 2234.47 1049.14C2240.21 1042.78 2244.89 1036.27 2252.62 1023.46" stroke="url(#paint0_linear_4_39)" stroke-width="117" stroke-linecap="round"/>
</g>
<g style="mix-blend-mode:color-burn" filter="url(#filter2_n_4_39)">
<path d="M219.727 1734.85C220.388 1734.92 263.705 1739.02 330.362 1745.11C364.823 1748.25 385.101 1737.28 438.13 1695.86C462.614 1676.73 494.896 1639.42 516.491 1616.23C538.086 1593.04 546.615 1582.41 565.946 1553.03C585.276 1523.64 615.149 1475.82 632.069 1446.79C663.507 1392.84 667.766 1316.1 668.645 1277.29C669.005 1261.37 655.059 1244.55 641.246 1227.86C627.531 1211.29 591.79 1206.83 551.988 1202.49C530.862 1200.18 519.309 1203.56 473.776 1224.02C433.435 1242.14 359.145 1280 298.81 1315.27C238.474 1350.53 194.611 1383.08 167.608 1402.09C115.517 1438.77 75.202 1431.28 54.1263 1421.73C35.1868 1413.15 30.4013 1379.6 25.9613 1348.27C14.7981 1269.49 32.349 1222.35 50.6765 1188.51C55.4859 1179.63 61.9817 1173.68 98.4574 1148.83C134.933 1123.99 202.048 1081.24 248.79 1052.07C319.609 1007.86 352.762 985.426 365.752 971.031C382.164 952.845 391.561 919.839 401.921 864.13C409.9 821.224 418.639 747.56 423.816 705.437C432.075 638.231 417.31 597.306 405.885 574.46C397.425 557.544 373.995 549.679 329.43 536.848C296.564 527.385 241.248 520.376 207.998 515.706C164.983 509.664 142.593 513.098 110.675 520.806C90.6454 525.643 63.306 535.951 16.469 559.775C-30.3679 583.599 -95.7529 621.546 -170.741 675.525C-245.728 729.503 -328.337 798.364 -377.721 841.596C-440.759 900.344 -459.823 923.732 -468.903 938.66C-472.989 946.185 -476.013 953.609 -480.523 967.879" stroke="url(#paint1_linear_4_39)" stroke-width="89" stroke-linecap="round"/>
</g>
</g>
<defs>
<filter id="filter0_fn_4_39" x="1.52588e-05" y="1.52588e-05" width="2643.4" height="1694.4" filterUnits="userSpaceOnUse" color-interpolation-filters="sRGB">
<feFlood flood-opacity="0" result="BackgroundImageFix"/>
<feBlend mode="normal" in="SourceGraphic" in2="BackgroundImageFix" result="shape"/>
<feGaussianBlur stdDeviation="90.85" result="effect1_foregroundBlur_4_39"/>
<feTurbulence type="fractalNoise" baseFrequency="2.1276595592498779 2.1276595592498779" stitchTiles="stitch" numOctaves="3" result="noise" seed="7561" />
<feComponentTransfer in="noise" result="coloredNoise1">
<feFuncR type="linear" slope="2" intercept="-0.5" />
<feFuncG type="linear" slope="2" intercept="-0.5" />
<feFuncB type="linear" slope="2" intercept="-0.5" />
<feFuncA type="discrete" tableValues="0 0 0 0 0 0 0 0 0 0 0 1 1 1 1 1 1 1 1 1 1 1 1 1 1 1 1 1 1 1 1 1 1 1 1 1 1 1 1 0 0 0 0 0 0 0 0 0 0 0 0 0 0 0 0 0 0 0 0 0 0 0 0 0 0 0 0 0 0 0 0 0 0 0 0 0 0 0 0 0 0 0 0 0 0 0 0 0 0 0 0 0 0 0 0 0 0 0 0 0 "/>
</feComponentTransfer>
<feComposite operator="in" in2="effect1_foregroundBlur_4_39" in="coloredNoise1" result="noise1Clipped" />
<feComponentTransfer in="noise1Clipped" result="color1">
<feFuncA type="table" tableValues="0 0.15" />
</feComponentTransfer>
<feMerge result="effect2_noise_4_39">
<feMergeNode in="effect1_foregroundBlur_4_39" />
<feMergeNode in="color1" />
</feMerge>
</filter>
<filter id="filter1_n_4_39" x="1148.67" y="13.8676" width="1162.46" height="1363.97" filterUnits="userSpaceOnUse" color-interpolation-filters="sRGB">
<feFlood flood-opacity="0" result="BackgroundImageFix"/>
<feBlend mode="normal" in="SourceGraphic" in2="BackgroundImageFix" result="shape"/>
<feTurbulence type="fractalNoise" baseFrequency="0.25 0.25" stitchTiles="stitch" numOctaves="3" result="noise" seed="9707" />
<feComponentTransfer in="noise" result="coloredNoise1">
<feFuncR type="linear" slope="2" intercept="-0.5" />
<feFuncG type="linear" slope="2" intercept="-0.5" />
<feFuncB type="linear" slope="2" intercept="-0.5" />
<feFuncA type="discrete" tableValues="1 1 1 1 1 1 1 1 1 1 1 1 1 1 1 1 1 1 1 1 1 1 1 1 1 1 1 1 1 1 1 1 1 1 1 1 1 1 1 1 1 1 1 1 1 1 1 1 1 1 1 0 0 0 0 0 0 0 0 0 0 0 0 0 0 0 0 0 0 0 0 0 0 0 0 0 0 0 0 0 0 0 0 0 0 0 0 0 0 0 0 0 0 0 0 0 0 0 0 0 "/>
</feComponentTransfer>
<feComposite operator="in" in2="shape" in="coloredNoise1" result="noise1Clipped" />
<feComponentTransfer in="noise1Clipped" result="color1">
<feFuncA type="table" tableValues="0 0.15" />
</feComponentTransfer>
<feMerge result="effect1_noise_4_39">
<feMergeNode in="shape" />
<feMergeNode in="color1" />
</feMerge>
</filter>
<filter id="filter2_n_4_39" x="-525.035" y="468.124" width="1238.19" height="1321.98" filterUnits="userSpaceOnUse" color-interpolation-filters="sRGB">
<feFlood flood-opacity="0" result="BackgroundImageFix"/>
<feBlend mode="normal" in="SourceGraphic" in2="BackgroundImageFix" result="shape"/>
<feTurbulence type="fractalNoise" baseFrequency="0.25 0.25" stitchTiles="stitch" numOctaves="3" result="noise" seed="9707" />
<feComponentTransfer in="noise" result="coloredNoise1">
<feFuncR type="linear" slope="2" intercept="-0.5" />
<feFuncG type="linear" slope="2" intercept="-0.5" />
<feFuncB type="linear" slope="2" intercept="-0.5" />
<feFuncA type="discrete" tableValues="1 1 1 1 1 1 1 1 1 1 1 1 1 1 1 1 1 1 1 1 1 1 1 1 1 1 1 1 1 1 1 1 1 1 1 1 1 1 1 1 1 1 1 1 1 1 1 1 1 1 1 0 0 0 0 0 0 0 0 0 0 0 0 0 0 0 0 0 0 0 0 0 0 0 0 0 0 0 0 0 0 0 0 0 0 0 0 0 0 0 0 0 0 0 0 0 0 0 0 0 "/>
</feComponentTransfer>
<feComposite operator="in" in2="shape" in="coloredNoise1" result="noise1Clipped" />
<feComponentTransfer in="noise1Clipped" result="color1">
<feFuncA type="table" tableValues="0 0.15" />
</feComponentTransfer>
<feMerge result="effect1_noise_4_39">
<feMergeNode in="shape" />
<feMergeNode in="color1" />
</feMerge>
</filter>
<linearGradient id="paint0_linear_4_39" x1="1923.94" y1="172.776" x2="1529.41" y2="1319.82" gradientUnits="userSpaceOnUse">
<stop stop-color="#A0DDFB"/>
<stop offset="1" stop-color="#B2D7E9"/>
</linearGradient>
<linearGradient id="paint1_linear_4_39" x1="38.5819" y1="1717.7" x2="152.969" y2="510.102" gradientUnits="userSpaceOnUse">
<stop stop-color="#A0DDFB"/>
<stop offset="1" stop-color="#B2D7E9"/>
</linearGradient>
<clipPath id="clip0_4_39">
<rect width="2280" height="1331" fill="white" transform="translate(181.7 181.7)"/>
</clipPath>
</defs>
</svg>
